<svg width="40" height="40" viewBox="0 0 40 40" fill="none" xmlns="http://www.w3.org/2000/svg">
<path d="M34.9997 20.0013C35.9197 20.0013 36.6747 19.253 36.583 18.338C36.1988 14.5116 34.5032 10.9358 31.7836 8.21687C29.064 5.4979 25.4879 3.80306 21.6614 3.41966C20.7447 3.328 19.998 4.083 19.998 5.003V18.3363C19.998 18.7784 20.1736 19.2023 20.4862 19.5148C20.7988 19.8274 21.2227 20.003 21.6647 20.003L34.9997 20.0013Z" stroke="black" stroke-width="3.33333" stroke-linecap="round" stroke-linejoin="round"/>
<path d="M35.3494 26.4835C34.2891 28.9909 32.6307 31.2005 30.5192 32.919C28.4077 34.6374 25.9073 35.8125 23.2368 36.3414C20.5662 36.8704 17.8067 36.737 15.1996 35.9531C12.5925 35.1692 10.2171 33.7586 8.28107 31.8446C6.34506 29.9305 4.90739 27.5714 4.09376 24.9734C3.28013 22.3754 3.11531 19.6176 3.6137 16.9412C4.11209 14.2648 5.25853 11.7512 6.95278 9.62018C8.64703 7.48918 10.8375 5.80566 13.3327 4.7168" stroke="black" stroke-width="3.33333" stroke-linecap="round" stroke-linejoin="round"/>
</svg>
