<svg width="40" height="40" viewBox="0 0 40 40" fill="none" xmlns="http://www.w3.org/2000/svg">
<path d="M18.3329 33.334C15.4063 33.3429 12.5833 32.2515 10.4238 30.2763C8.26419 28.3012 6.92584 25.5866 6.67412 22.6708C6.4224 19.7551 7.27571 16.8513 9.06481 14.5352C10.8539 12.2192 13.4481 10.6602 16.3329 10.1673C25.8329 8.33398 28.3329 7.46732 31.6662 3.33398C33.3329 6.66732 34.9996 10.3007 34.9996 16.6673C34.9996 25.834 27.0329 33.334 18.3329 33.334Z" stroke="black" stroke-width="3.33333" stroke-linecap="round" stroke-linejoin="round"/>
<path d="M3.33203 35C3.33203 30 6.41536 26.0667 11.7987 25C15.832 24.2 19.9987 21.6667 21.6654 20" stroke="black" stroke-width="3.33333" stroke-linecap="round" stroke-linejoin="round"/>
</svg>
