<svg width="39" height="39" viewBox="0 0 39 39" fill="none" xmlns="http://www.w3.org/2000/svg">
<path d="M16.25 19.5H22.75" stroke="black" stroke-width="3.25" stroke-linecap="round" stroke-linejoin="round"/>
<path d="M16.25 13H22.75" stroke="black" stroke-width="3.25" stroke-linecap="round" stroke-linejoin="round"/>
<path d="M22.75 34.125V29.25C22.75 28.388 22.4076 27.5614 21.7981 26.9519C21.1886 26.3424 20.362 26 19.5 26C18.638 26 17.8114 26.3424 17.2019 26.9519C16.5924 27.5614 16.25 28.388 16.25 29.25V34.125" stroke="black" stroke-width="3.25" stroke-linecap="round" stroke-linejoin="round"/>
<path d="M9.75 16.25H6.5C5.63805 16.25 4.8114 16.5924 4.2019 17.2019C3.59241 17.8114 3.25 18.638 3.25 19.5V30.875C3.25 31.737 3.59241 32.5636 4.2019 33.1731C4.8114 33.7826 5.63805 34.125 6.5 34.125H32.5C33.362 34.125 34.1886 33.7826 34.7981 33.1731C35.4076 32.5636 35.75 31.737 35.75 30.875V14.625C35.75 13.763 35.4076 12.9364 34.7981 12.3269C34.1886 11.7174 33.362 11.375 32.5 11.375H29.25" stroke="black" stroke-width="3.25" stroke-linecap="round" stroke-linejoin="round"/>
<path d="M9.75 34.125V8.125C9.75 7.26305 10.0924 6.4364 10.7019 5.8269C11.3114 5.21741 12.138 4.875 13 4.875H26C26.862 4.875 27.6886 5.21741 28.2981 5.8269C28.9076 6.4364 29.25 7.26305 29.25 8.125V34.125" stroke="black" stroke-width="3.25" stroke-linecap="round" stroke-linejoin="round"/>
</svg>
