<svg width="54" height="54" viewBox="0 0 54 54" fill="none" xmlns="http://www.w3.org/2000/svg">
<path d="M27 36V47.25" stroke="#BD902F" stroke-width="4.5" stroke-linecap="round" stroke-linejoin="round"/>
<path d="M36 31.5V47.25" stroke="#BD902F" stroke-width="4.5" stroke-linecap="round" stroke-linejoin="round"/>
<path d="M45 22.5V47.25" stroke="#BD902F" stroke-width="4.5" stroke-linecap="round" stroke-linejoin="round"/>
<path d="M49.5 6.75L30.0465 26.2035C29.942 26.3083 29.8179 26.3914 29.6812 26.4481C29.5445 26.5048 29.398 26.534 29.25 26.534C29.102 26.534 28.9555 26.5048 28.8188 26.4481C28.6821 26.3914 28.558 26.3083 28.4535 26.2035L21.0465 18.7965C20.8355 18.5856 20.5494 18.4671 20.2511 18.4671C19.9528 18.4671 19.6667 18.5856 19.4558 18.7965L4.5 33.75" stroke="#BD902F" stroke-width="4.5" stroke-linecap="round" stroke-linejoin="round"/>
<path d="M9 40.5V47.25" stroke="#BD902F" stroke-width="4.5" stroke-linecap="round" stroke-linejoin="round"/>
<path d="M18 31.5V47.25" stroke="#BD902F" stroke-width="4.5" stroke-linecap="round" stroke-linejoin="round"/>
</svg>
