<svg width="33" height="32" viewBox="0 0 33 32" fill="none" xmlns="http://www.w3.org/2000/svg">
<path d="M9.15794 6.55294C9.14047 7.09454 8.98323 7.58373 8.68623 8.02051C8.38922 8.45729 7.99612 8.77613 7.50693 8.97705C7.01774 9.17797 6.51108 9.22601 5.98695 9.12119C5.46282 9.01636 5.01294 8.77176 4.63731 8.3874C4.26168 8.00304 4.03019 7.54879 3.94284 7.02466C3.85548 6.50053 3.91663 5.99387 4.12628 5.50468C4.33593 5.01549 4.66788 4.62676 5.12213 4.33849C5.57638 4.05021 6.0743 3.91481 6.61591 3.93228C7.31475 3.94975 7.91313 4.21182 8.41106 4.71848C8.90898 5.22514 9.15794 5.83663 9.15794 6.55294ZM9.23656 11.1129H3.99525V27.5182H9.23656V11.1129ZM17.5178 11.1129H12.3027V27.5182H17.4654V18.9224C17.4654 17.9965 17.6751 17.2103 18.0944 16.5639C18.4962 15.9698 19.0116 15.5593 19.6406 15.3321C20.2695 15.105 20.8985 15.0875 21.5274 15.2797C22.1564 15.4719 22.6631 15.8563 23.0474 16.4328C23.4842 17.0967 23.7026 17.9266 23.7026 18.9224V27.5182H28.8915V17.1404C28.8915 15.6029 28.5595 14.3014 27.8956 13.2356C27.3191 12.3097 26.5154 11.6108 25.4846 11.1391C24.5412 10.7373 23.5191 10.5625 22.4185 10.615C21.3527 10.6674 20.3656 10.9338 19.4571 11.4143C18.5486 11.8947 17.8847 12.528 17.4654 13.3142L17.5178 11.1129Z" fill="white"/>
</svg>
